<svg xmlns="http://www.w3.org/2000/svg" version="1.1" xmlns:xlink="http://www.w3.org/1999/xlink" xmlns:svgjs="http://svgjs.dev/svgjs" width="1000" height="383" viewBox="0 0 1000 383"><g transform="matrix(1,0,0,1,-0.6060596014340263,0.4681258659216212)"><svg viewBox="0 0 396 152" data-background-color="#ffffff" preserveAspectRatio="xMidYMid meet" height="383" width="1000" xmlns="http://www.w3.org/2000/svg" xmlns:xlink="http://www.w3.org/1999/xlink"><g id="tight-bounds" transform="matrix(1,0,0,1,0.24000039783214788,-0.18578363347280913)"><svg viewBox="0 0 395.52 152.37156096690072" height="152.37156096690072" width="395.52"><g><svg viewBox="0 0 625.1476064889794 240.8341338881664" height="152.37156096690072" width="395.52"><g transform="matrix(1,0,0,1,229.62760648897935,74.42124305405906)"><svg viewBox="0 0 395.52 91.9916477800483" height="91.9916477800483" width="395.52"><g id="textblocktransform"><svg viewBox="0 0 395.52 91.9916477800483" height="91.9916477800483" width="395.52" id="textblock"><g><svg viewBox="0 0 395.52 91.9916477800483" height="91.9916477800483" width="395.52"><g transform="matrix(1,0,0,1,0,0)"><svg width="395.52" viewBox="0.5400000214576721 -30.489999771118164 131.41000366210938 30.559999465942383" height="91.9916477800483" data-palette-color="#bb84e8"><path d="M2.39 0.07Q1.42 0.07 0.98-0.11 0.54-0.29 0.54-0.66L0.54-0.66Q0.54-0.83 0.66-1.25L0.66-1.25 10.94-29.79Q11.18-30.49 12.67-30.49L12.67-30.49 13.94-30.49Q15.43-30.49 15.67-29.79L15.67-29.79 25.95-1.22Q26.07-0.95 26.07-0.66L26.07-0.66Q26.07 0.07 24.24 0.07L24.24 0.07 23.88 0.07Q22.36 0.07 22.12-0.61L22.12-0.61 19.58-7.74 6.84-7.74 4.35-0.61Q4.13 0.07 2.61 0.07L2.61 0.07 2.39 0.07ZM8.03-11.04L18.41-11.04 13.87-23.95Q13.67-24.49 13.55-25.17 13.43-25.85 13.33-26.49L13.33-26.49 13.23-26.49Q12.94-24.85 12.57-23.95L12.57-23.95 8.03-11.04ZM32.13 0Q31.44 0 31.13-0.32 30.81-0.63 30.81-1.29L30.81-1.29 30.81-29.08Q30.81-29.76 31.13-30.07 31.44-30.37 32.13-30.37L32.13-30.37 40.89-30.37Q46.99-30.37 50.66-26.76 54.32-23.14 54.32-15.21L54.32-15.21Q54.32-7.23 50.66-3.61 46.99 0 40.89 0L40.89 0 32.13 0ZM34.64-3.3L40.6-3.3Q44.99-3.3 47.68-6.16 50.36-9.03 50.36-15.21L50.36-15.21Q50.36-19.36 49.09-22.01 47.82-24.66 45.63-25.87 43.43-27.08 40.6-27.08L40.6-27.08 34.64-27.08 34.64-3.3ZM59.17 0.07Q58.2 0.07 57.76-0.11 57.32-0.29 57.32-0.66L57.32-0.66Q57.32-0.83 57.44-1.25L57.44-1.25 67.72-29.79Q67.96-30.49 69.45-30.49L69.45-30.49 70.72-30.49Q72.21-30.49 72.46-29.79L72.46-29.79 82.73-1.22Q82.86-0.95 82.86-0.66L82.86-0.66Q82.86 0.07 81.03 0.07L81.03 0.07 80.66 0.07Q79.15 0.07 78.9-0.61L78.9-0.61 76.36-7.74 63.62-7.74 61.13-0.61Q60.91 0.07 59.39 0.07L59.39 0.07 59.17 0.07ZM64.81-11.04L75.19-11.04 70.65-23.95Q70.45-24.49 70.33-25.17 70.21-25.85 70.11-26.49L70.11-26.49 70.01-26.49Q69.72-24.85 69.36-23.95L69.36-23.95 64.81-11.04ZM86.17-9.99Q85.71-9.99 85.5-10.29 85.3-10.6 85.3-11.28L85.3-11.28 85.3-11.74Q85.3-12.4 85.5-12.72 85.71-13.04 86.17-13.04L86.17-13.04 94.38-13.04Q94.84-13.04 95.05-12.72 95.26-12.4 95.26-11.74L95.26-11.74 95.26-11.28Q95.26-10.6 95.05-10.29 94.84-9.99 94.38-9.99L94.38-9.99 86.17-9.99ZM99.7 0.07Q98.72 0.07 98.28-0.11 97.84-0.29 97.84-0.66L97.84-0.66Q97.84-0.83 97.96-1.25L97.96-1.25 108.24-29.79Q108.49-30.49 109.98-30.49L109.98-30.49 111.24-30.49Q112.73-30.49 112.98-29.79L112.98-29.79 123.26-1.22Q123.38-0.95 123.38-0.66L123.38-0.66Q123.38 0.07 121.55 0.07L121.55 0.07 121.18 0.07Q119.67 0.07 119.42-0.61L119.42-0.61 116.88-7.74 104.14-7.74 101.65-0.61Q101.43 0.07 99.92 0.07L99.92 0.07 99.7 0.07ZM105.34-11.04L115.71-11.04 111.17-23.95Q110.98-24.49 110.85-25.17 110.73-25.85 110.63-26.49L110.63-26.49 110.54-26.49Q110.24-24.85 109.88-23.95L109.88-23.95 105.34-11.04ZM129.87 0.07Q128.11 0.07 128.11-0.88L128.11-0.88 128.11-29.52Q128.11-30.49 129.87-30.49L129.87-30.49 130.21-30.49Q131.95-30.49 131.95-29.52L131.95-29.52 131.95-0.88Q131.95 0.07 130.21 0.07L130.21 0.07 129.87 0.07Z" opacity="1" transform="matrix(1,0,0,1,0,0)" fill="#bb84e8" class="wordmark-text-0" data-fill-palette-color="primary" id="text-0"></path></svg></g></svg></g></svg></g></svg></g><g><svg viewBox="0 0 207.91058624765668 240.8341338881664" height="240.8341338881664" width="207.91058624765668"><g><svg xmlns="http://www.w3.org/2000/svg" xmlns:xlink="http://www.w3.org/1999/xlink" version="1.1" x="0" y="0" viewBox="9.63800048828125 3.246999979019165 80.7239990234375 93.50699615478516" enable-background="new 0 0 100 100" xml:space="preserve" height="240.8341338881664" width="207.91058624765668" class="icon-icon-0" data-fill-palette-color="accent" id="icon-0"><g fill="#471aa0" data-fill-palette-color="accent"><g fill="#471aa0" data-fill-palette-color="accent"><polygon points="36.703,11.011 9.638,26.636 9.638,38.757 36.703,23.131 63.767,38.757 63.767,26.636   " fill="#471aa0" data-fill-palette-color="accent"></polygon></g><g fill="#471aa0" data-fill-palette-color="accent"><polygon points="63.298,89.092 36.233,73.467 36.233,61.348 63.298,76.973 90.362,61.348 90.362,73.467   " fill="#471aa0" data-fill-palette-color="accent"></polygon></g><g fill="#471aa0" data-fill-palette-color="accent"><polygon points="9.638,42.012 36.703,26.386 47.198,32.446 20.134,48.072 20.134,79.324 9.638,73.264   " fill="#471aa0" data-fill-palette-color="accent"></polygon></g><g fill="#471aa0" data-fill-palette-color="accent"><polygon points="77.083,18.872 50.018,3.247 39.522,9.307 66.586,24.932 66.586,56.184 77.083,50.124   " fill="#471aa0" data-fill-palette-color="accent"></polygon></g><g fill="#471aa0" data-fill-palette-color="accent"><polygon points="23.01,81.127 23.011,49.876 33.507,43.816 33.507,75.068 60.571,90.693 50.075,96.754   " fill="#471aa0" data-fill-palette-color="accent"></polygon></g><g fill="#471aa0" data-fill-palette-color="accent"><polygon points="90.362,58.092 90.362,26.84 79.866,20.78 79.866,52.031 52.802,67.658 63.298,73.719   " fill="#471aa0" data-fill-palette-color="accent"></polygon></g></g></svg></g></svg></g></svg></g><defs></defs></svg><rect width="395.52" height="152.37156096690072" fill="none" stroke="none" visibility="hidden"></rect></g></svg></g></svg>